<mxfile host="app.diagrams.net" modified="2023-05-15T08:45:12.103Z" agent="Mozilla/5.0 (Windows NT 10.0; Win64; x64) AppleWebKit/537.36 (KHTML, like Gecko) Chrome/113.0.0.0 Safari/537.36" version="21.2.7" etag="PHzgwKRK-h2ozkvDD6VW" type="github">
  <diagram name="Page-1" id="VGiIY6zP2sfScLPC9NEw">
    <mxGraphModel>
      <root>
        <mxCell id="0" />
        <mxCell id="1" parent="0" />
      </root>
    </mxGraphModel>
  </diagram>
</mxfile>
